<svg width="172" height="172" xmlns="http://www.w3.org/2000/svg">

 <g>
  <title>background</title>
  <rect fill="none" id="canvas_background" height="174" width="174" y="-1" x="-1"/>
 </g>
 <g>
  <title>Layer 1</title>
  <path id="svg_1" fill="#032e61" d="m88.884972,167.086067l0.4,0a144.79,144.79 0 0 0 75.33,-24.22a5.81,5.81 0 0 0 2.5,-4.75l0,-11.58a129.65,129.65 0 0 0 -78.82,-121.2a5.79,5.79 0 0 0 -4.58,0a129.65,129.65 0 0 0 -78.83,121.2l0,11.58a5.82,5.82 0 0 0 2.39,4.75a144.85,144.85 0 0 0 78.73,24.27l2.88,-0.05z"/>
  <path id="svg_2" fill="#8cd3f8" d="m31.94,106.42l37.74,-55.28a5.78,5.78 0 0 1 9.56,0l18.5,27.05l6.81,-9.7a5.71,5.71 0 0 1 1.45,-1.49a5.79,5.79 0 0 1 8.06,1.47l26.3,38.06l13.76,0c-10.78,-66.91 -63.58,-87.4 -68,-89.39c0,0 -22,7.84 -41.53,31.29a116.6,116.6 0 0 0 -26.38,58l13.73,-0.01z"/>
  <path id="svg_3" fill="#a372b5" d="m126.36,106.54l-17.03,-24.58l-8.26,11.94l9.54,12.62l15.75,0.02z"/>
  <path id="svg_4" fill="#741b89" d="m101.07,93.9l-8.71,12.6l18.25,0.02l-9.54,-12.62z"/>
  <path id="svg_5" fill="#a372b5" d="m59.93,86.07l14.85,20.41l3.45,0l12.56,-18.09l-13.3,-19.46l-2.93,-4.26l-14.63,21.4z"/>
  <path id="svg_6" fill="#741b89" d="m59.93,86.07l-13.93,20.37l28.78,0.04l-14.85,-20.41z"/>
  <path id="svg_7" fill="#009a44" d="m90.66,147.06a3.58,3.58 0 0 0 -1.83,-4.72l-5.33,-2.34a16.48,16.48 0 0 1 -1.9,-1a15.23,15.23 0 0 1 -4.8,-21l-59.91,0c-0.29,2.9 -0.29,5.79 -0.29,8.69l0,8.49a136.8,136.8 0 0 0 39.34,16.67c10.59,2.37 20,3.84 29.77,3.91l4.78,-8.33a3.78,3.78 0 0 0 0.17,-0.37z"/>
  <path id="svg_8" fill="#009a44" d="m155.44,118l-63.67,0l-4.84,5.82a3.71,3.71 0 0 0 -0.52,0.88a3.58,3.58 0 0 0 1.92,4.68l5.33,2.36c0.48,0.21 0.94,0.45 1.39,0.7a15.22,15.22 0 0 1 5.65,20.76l-1,1.68c3,-0.39 6.14,-0.9 9.41,-1.57a137.82,137.82 0 0 0 16.42,-4.24c0.82,-0.25 2.49,-0.83 2.49,-0.83a139.12,139.12 0 0 0 27.57,-13.08l0.09,-8.49c0.05,-2.9 -0.07,-5.79 -0.24,-8.67z"/>
  <path id="svg_9" fill="#fff" d="m95.05,132.42c-0.45,-0.25 -0.91,-0.49 -1.39,-0.7l-5.33,-2.36a3.58,3.58 0 0 1 -1.92,-4.68a3.71,3.71 0 0 1 0.52,-0.88l4.84,-5.8l-15,0a15.23,15.23 0 0 0 4.8,21a16.48,16.48 0 0 0 1.9,1l5.33,2.35a3.58,3.58 0 0 1 1.83,4.72a3.78,3.78 0 0 1 -0.17,0.35l-4.78,8.33a105.4,105.4 0 0 0 14,-0.86l1,-1.68a15.22,15.22 0 0 0 -5.63,-20.79z"/>
  <g id="svg_10" fill="#046a38">
   <path id="svg_11" d="m116.37,136.87l17.27,0l-8.64,-9.87l-8.63,9.87z"/>
   <path id="svg_12" d="m47.3,143.86l17.27,0l-8.64,-9.87l-8.63,9.87z"/>
   <path id="svg_13" d="m39,123.61l-8.64,9.86l17.27,0l-8.63,-9.86z"/>
  </g>
 </g>
</svg>